<svg xmlns="http://www.w3.org/2000/svg" viewBox="0 0 1200 675" role="img" aria-label="گفت‌وگو و همکاری تیمی">
  <defs><linearGradient id="b" x2="1" y2="1"><stop stop-color="#221738"/><stop offset="1" stop-color="#090b16"/></linearGradient></defs><rect width="1200" height="675" fill="url(#b)"/><path d="M160 145h520a55 55 0 0 1 55 55v185a55 55 0 0 1-55 55H390l-120 95 34-95H160a55 55 0 0 1-55-55V200a55 55 0 0 1 55-55Z" fill="#312e81" fill-opacity=".55" stroke="#a5b4fc" stroke-width="4"/><path d="M620 315h420a55 55 0 0 1 55 55v120a55 55 0 0 1-55 55H850l-95 72 25-72H620a55 55 0 0 1-55-55V370a55 55 0 0 1 55-55Z" fill="#701a75" fill-opacity=".45" stroke="#f0abfc" stroke-width="4"/><g fill="#e0e7ff"><circle cx="260" cy="290" r="13"/><circle cx="355" cy="290" r="13"/><circle cx="450" cy="290" r="13"/></g>
</svg>
